<?xml version="1.0" encoding="utf-8"?>
<!-- Generator: Adobe Illustrator 16.0.0, SVG Export Plug-In . SVG Version: 6.00 Build 0)  -->
<!DOCTYPE svg PUBLIC "-//W3C//DTD SVG 1.1 Basic//EN" "http://www.w3.org/Graphics/SVG/1.1/DTD/svg11-basic.dtd">
<svg version="1.1" baseProfile="basic" id="Layer_1"
	 xmlns="http://www.w3.org/2000/svg" xmlns:xlink="http://www.w3.org/1999/xlink" x="0px" y="0px" width="288px" height="288px"
	 viewBox="0 0 288 288" xml:space="preserve">
<g>
	<g>
		<g>
			<g>
				<linearGradient id="SVGID_1_" gradientUnits="userSpaceOnUse" x1="226.8047" y1="83.332" x2="51.8069" y2="111.9987">
					<stop  offset="0" style="stop-color:#50DBFF"/>
					<stop  offset="0.5244" style="stop-color:#2069FF"/>
					<stop  offset="0.7622" style="stop-color:#915DC0"/>
					<stop  offset="1" style="stop-color:#FF5183"/>
				</linearGradient>
				<path fill="url(#SVGID_1_)" d="M212.86,77.02l-66.53,66.53V49.47C172.31,49.47,195.83,60,212.86,77.02z"/>
				<linearGradient id="SVGID_2_" gradientUnits="userSpaceOnUse" x1="228.1328" y1="91.4414" x2="53.1347" y2="120.1081">
					<stop  offset="0" style="stop-color:#50DBFF"/>
					<stop  offset="0.5244" style="stop-color:#2069FF"/>
					<stop  offset="0.7622" style="stop-color:#915DC0"/>
					<stop  offset="1" style="stop-color:#FF5183"/>
				</linearGradient>
				<path fill="url(#SVGID_2_)" d="M146.33,143.55H52.24c0-25.98,10.53-49.5,27.56-66.53L146.33,143.55z"/>
				<linearGradient id="SVGID_3_" gradientUnits="userSpaceOnUse" x1="241.8154" y1="174.959" x2="66.8143" y2="203.6262">
					<stop  offset="0" style="stop-color:#50DBFF"/>
					<stop  offset="0.5244" style="stop-color:#2069FF"/>
					<stop  offset="0.7622" style="stop-color:#915DC0"/>
					<stop  offset="1" style="stop-color:#FF5183"/>
				</linearGradient>
				<path fill="url(#SVGID_3_)" d="M146.33,143.55v94.09c-25.99,0-49.51-10.53-66.53-27.56L146.33,143.55z"/>
				<linearGradient id="SVGID_4_" gradientUnits="userSpaceOnUse" x1="240.4854" y1="166.8467" x2="65.4854" y2="195.5137">
					<stop  offset="0" style="stop-color:#50DBFF"/>
					<stop  offset="0.5244" style="stop-color:#2069FF"/>
					<stop  offset="0.7622" style="stop-color:#915DC0"/>
					<stop  offset="1" style="stop-color:#FF5183"/>
				</linearGradient>
				<path fill="url(#SVGID_4_)" d="M240.41,143.55c0,25.99-10.53,49.51-27.55,66.53l-66.53-66.53H240.41z"/>
			</g>
			<g>
				<radialGradient id="SVGID_5_" cx="113.0684" cy="96.5146" r="43.4052" gradientUnits="userSpaceOnUse">
					<stop  offset="0.3738" style="stop-color:#FDFDFD"/>
					<stop  offset="0.649" style="stop-color:#FBFBFB"/>
					<stop  offset="0.8098" style="stop-color:#F2F2F2"/>
					<stop  offset="0.9409" style="stop-color:#E4E4E4"/>
					<stop  offset="1" style="stop-color:#DBDBDB"/>
				</radialGradient>
				<path fill="url(#SVGID_5_)" d="M146.33,49.47v94.08L79.8,77.02C96.82,60,120.34,49.47,146.33,49.47z"/>
				<radialGradient id="SVGID_6_" cx="99.2891" cy="176.8193" r="43.4078" gradientUnits="userSpaceOnUse">
					<stop  offset="0.3738" style="stop-color:#FDFDFD"/>
					<stop  offset="0.649" style="stop-color:#FBFBFB"/>
					<stop  offset="0.8098" style="stop-color:#F2F2F2"/>
					<stop  offset="0.9409" style="stop-color:#E4E4E4"/>
					<stop  offset="1" style="stop-color:#DBDBDB"/>
				</radialGradient>
				<path fill="url(#SVGID_6_)" d="M52.24,143.55h94.09L79.8,210.08C62.77,193.06,52.24,169.54,52.24,143.55z"/>
				<radialGradient id="SVGID_7_" cx="179.5986" cy="190.5996" r="43.4078" gradientUnits="userSpaceOnUse">
					<stop  offset="0.3738" style="stop-color:#FDFDFD"/>
					<stop  offset="0.649" style="stop-color:#FBFBFB"/>
					<stop  offset="0.8098" style="stop-color:#F2F2F2"/>
					<stop  offset="0.9409" style="stop-color:#E4E4E4"/>
					<stop  offset="1" style="stop-color:#DBDBDB"/>
				</radialGradient>
				<path fill="url(#SVGID_7_)" d="M146.33,143.55l66.53,66.53c-17.03,17.03-40.55,27.56-66.53,27.56V143.55z"/>
				<radialGradient id="SVGID_8_" cx="193.374" cy="110.2896" r="43.405" gradientUnits="userSpaceOnUse">
					<stop  offset="0.3738" style="stop-color:#FDFDFD"/>
					<stop  offset="0.649" style="stop-color:#FBFBFB"/>
					<stop  offset="0.8098" style="stop-color:#F2F2F2"/>
					<stop  offset="0.9409" style="stop-color:#E4E4E4"/>
					<stop  offset="1" style="stop-color:#DBDBDB"/>
				</radialGradient>
				<path fill="url(#SVGID_8_)" d="M240.41,143.55h-94.08l66.53-66.53C229.88,94.05,240.41,117.57,240.41,143.55z"/>
			</g>
		</g>
		<radialGradient id="SVGID_9_" cx="145.3135" cy="145.54" r="10.4697" gradientUnits="userSpaceOnUse">
			<stop  offset="0.3384" style="stop-color:#400500"/>
			<stop  offset="0.3682" style="stop-color:#4F1814"/>
			<stop  offset="0.4696" style="stop-color:#7D5451"/>
			<stop  offset="0.5702" style="stop-color:#A48886"/>
			<stop  offset="0.6676" style="stop-color:#C5B3B2"/>
			<stop  offset="0.7611" style="stop-color:#DED4D3"/>
			<stop  offset="0.8498" style="stop-color:#F0ECEB"/>
			<stop  offset="0.9316" style="stop-color:#FBFAFA"/>
			<stop  offset="1" style="stop-color:#FFFFFF"/>
		</radialGradient>
		<circle opacity="0.7" fill="url(#SVGID_9_)" cx="145.31" cy="145.54" r="10.47"/>
		<linearGradient id="SVGID_10_" gradientUnits="userSpaceOnUse" x1="160.0918" y1="129.9116" x2="120.2857" y2="169.7177">
			<stop  offset="0" style="stop-color:#0E5DF8"/>
			<stop  offset="0.3103" style="stop-color:#0F4EE0"/>
			<stop  offset="0.9631" style="stop-color:#1026A3"/>
			<stop  offset="1" style="stop-color:#10249F"/>
		</linearGradient>
		<circle fill="url(#SVGID_10_)" cx="146.6" cy="143.4" r="6.35"/>
		
			<text transform="matrix(0.342 -0.9397 0.9397 0.342 162.7803 110.0781)" fill="#FFFFFF" font-family="'Arial-Black'" font-size="12">₹ 400</text>
		<g>
			<text transform="matrix(-0.917 0.3989 -0.3989 -0.917 110.7295 154.6709)" font-family="'Arial-Black'" font-size="12">₹ 100</text>
			<g>
				<linearGradient id="SVGID_11_" gradientUnits="userSpaceOnUse" x1="138.1084" y1="139.7822" x2="84.074" y2="177.4243">
					<stop  offset="0" style="stop-color:#50DBFF"/>
					<stop  offset="0.5244" style="stop-color:#2069FF"/>
					<stop  offset="0.7622" style="stop-color:#915DC0"/>
					<stop  offset="1" style="stop-color:#FF5183"/>
				</linearGradient>
				<path fill="url(#SVGID_11_)" d="M112.15,159.73l-0.01,1.45l-2.03,0.88c0.06,0.08,0.14,0.14,0.24,0.19
					c0.1,0.05,0.21,0.09,0.33,0.11c0.12,0.02,0.25,0.02,0.38,0.01s0.26-0.05,0.39-0.1l1.51-0.66l-0.01,1.45l-5.8,2.52l0.01-1.45
					l1.4-0.61c-0.07-0.02-0.14-0.05-0.22-0.08c-0.07-0.03-0.14-0.07-0.2-0.12c-0.06-0.04-0.12-0.09-0.17-0.14
					c-0.05-0.05-0.09-0.1-0.12-0.15l-1.52,0.66l0.01-1.45l1.1-0.48c-0.01-0.24,0.03-0.48,0.11-0.74c0.08-0.25,0.19-0.5,0.34-0.73
					c0.15-0.24,0.33-0.46,0.53-0.66c0.21-0.21,0.43-0.38,0.67-0.53l-4.41-1.81l2.41-1.05l4.01,1.8l0.48,1.11l-1.2,0.52
					c-0.11,0.05-0.22,0.12-0.32,0.21s-0.18,0.18-0.25,0.29c-0.07,0.1-0.12,0.21-0.15,0.33c-0.04,0.11-0.05,0.22-0.04,0.32
					L112.15,159.73z"/>
				<linearGradient id="SVGID_12_" gradientUnits="userSpaceOnUse" x1="136.6904" y1="137.7461" x2="82.656" y2="175.3882">
					<stop  offset="0" style="stop-color:#50DBFF"/>
					<stop  offset="0.5244" style="stop-color:#2069FF"/>
					<stop  offset="0.7622" style="stop-color:#915DC0"/>
					<stop  offset="1" style="stop-color:#FF5183"/>
				</linearGradient>
				<path fill="url(#SVGID_12_)" d="M97.79,169.83l-3.49-8.01l2.21-0.96l2.28,5.25c0.24-0.43,0.49-0.8,0.75-1.11
					c0.26-0.31,0.61-0.66,1.05-1.03l0.78,1.79c-0.64,0.56-1.09,1.1-1.36,1.62s-0.41,1.07-0.42,1.67L97.79,169.83z"/>
				<linearGradient id="SVGID_13_" gradientUnits="userSpaceOnUse" x1="135.8477" y1="136.5361" x2="81.8132" y2="174.1783">
					<stop  offset="0" style="stop-color:#50DBFF"/>
					<stop  offset="0.5244" style="stop-color:#2069FF"/>
					<stop  offset="0.7622" style="stop-color:#915DC0"/>
					<stop  offset="1" style="stop-color:#FF5183"/>
				</linearGradient>
				<path fill="url(#SVGID_13_)" d="M93.66,166.82c0.65,1.5,0.84,2.66,0.56,3.49c-0.28,0.83-0.97,1.49-2.07,1.97
					c-0.53,0.23-0.99,0.36-1.39,0.37c-0.4,0.02-0.75-0.03-1.05-0.15c-0.31-0.12-0.57-0.26-0.8-0.44c-0.22-0.18-0.44-0.4-0.65-0.68
					c-0.4-0.52-0.74-1.1-1.02-1.74c-0.62-1.43-0.83-2.58-0.64-3.45s0.88-1.57,2.07-2.08c0.66-0.29,1.24-0.42,1.74-0.38
					s0.97,0.2,1.41,0.49c0.32,0.21,0.64,0.54,0.96,1C93.1,165.68,93.39,166.21,93.66,166.82z M91.48,167.76
					c-0.44-1-0.82-1.65-1.16-1.94c-0.34-0.29-0.67-0.36-1.01-0.22c-0.22,0.1-0.38,0.26-0.48,0.49c-0.09,0.23-0.11,0.52-0.04,0.9
					c0.07,0.37,0.26,0.91,0.57,1.62c0.46,1.05,0.85,1.71,1.18,1.99c0.33,0.28,0.68,0.35,1.03,0.19c0.36-0.16,0.54-0.46,0.54-0.89
					C92.13,169.47,91.92,168.75,91.48,167.76z"/>
				<linearGradient id="SVGID_14_" gradientUnits="userSpaceOnUse" x1="134.9473" y1="135.2441" x2="80.9128" y2="172.8863">
					<stop  offset="0" style="stop-color:#50DBFF"/>
					<stop  offset="0.5244" style="stop-color:#2069FF"/>
					<stop  offset="0.7622" style="stop-color:#915DC0"/>
					<stop  offset="1" style="stop-color:#FF5183"/>
				</linearGradient>
				<path fill="url(#SVGID_14_)" d="M86.32,170.01c0.65,1.5,0.84,2.66,0.56,3.5c-0.28,0.83-0.97,1.49-2.07,1.97
					c-0.53,0.23-0.99,0.35-1.39,0.37c-0.4,0.02-0.75-0.03-1.05-0.15c-0.31-0.12-0.57-0.26-0.79-0.44s-0.44-0.4-0.65-0.68
					c-0.4-0.52-0.74-1.1-1.02-1.74c-0.62-1.43-0.83-2.58-0.64-3.45c0.2-0.87,0.88-1.57,2.07-2.08c0.66-0.29,1.24-0.42,1.74-0.38
					c0.5,0.03,0.97,0.2,1.41,0.49c0.32,0.21,0.64,0.54,0.96,1C85.76,168.87,86.05,169.4,86.32,170.01z M84.14,170.95
					c-0.44-1-0.82-1.65-1.16-1.94c-0.34-0.29-0.67-0.36-1.01-0.21c-0.22,0.1-0.38,0.26-0.48,0.48c-0.09,0.23-0.11,0.53-0.04,0.9
					s0.26,0.91,0.57,1.63c0.46,1.05,0.85,1.71,1.18,1.99c0.33,0.28,0.68,0.35,1.03,0.19c0.36-0.16,0.54-0.45,0.54-0.89
					C84.79,172.66,84.58,171.94,84.14,170.95z"/>
			</g>
		</g>
		<g>
			<text transform="matrix(0.9413 -0.3376 0.3376 0.9413 182.5879 134.8057)" font-family="'Arial-Black'" font-size="12">₹ 100</text>
			<g>
				<linearGradient id="SVGID_15_" gradientUnits="userSpaceOnUse" x1="180.8086" y1="128.8057" x2="215.0898" y2="128.8057">
					<stop  offset="0" style="stop-color:#50DBFF"/>
					<stop  offset="0.5244" style="stop-color:#2069FF"/>
					<stop  offset="0.7622" style="stop-color:#915DC0"/>
					<stop  offset="1" style="stop-color:#FF5183"/>
				</linearGradient>
				<path fill="url(#SVGID_15_)" d="M181.5,129.66l0.1-1.44l2.08-0.75c-0.06-0.08-0.13-0.15-0.23-0.21c-0.1-0.06-0.2-0.1-0.32-0.13
					c-0.12-0.03-0.24-0.04-0.38-0.04c-0.13,0-0.27,0.03-0.4,0.08l-1.55,0.56l0.1-1.44l5.96-2.14l-0.1,1.44l-1.44,0.52
					c0.07,0.02,0.14,0.06,0.21,0.1s0.13,0.08,0.19,0.13c0.06,0.05,0.11,0.1,0.16,0.15c0.05,0.05,0.08,0.1,0.11,0.15l1.56-0.56
					l-0.11,1.44l-1.13,0.41c0,0.24-0.06,0.48-0.15,0.73s-0.23,0.48-0.39,0.71c-0.16,0.23-0.35,0.44-0.57,0.63
					c-0.22,0.19-0.45,0.35-0.7,0.48l4.28,2.1l-2.48,0.89l-3.88-2.06l-0.41-1.14l1.24-0.44c0.12-0.04,0.23-0.1,0.33-0.18
					c0.1-0.08,0.19-0.17,0.26-0.27s0.13-0.2,0.17-0.31c0.04-0.11,0.06-0.22,0.06-0.32L181.5,129.66z"/>
				<linearGradient id="SVGID_16_" gradientUnits="userSpaceOnUse" x1="180.8086" y1="125.0566" x2="215.0898" y2="125.0566">
					<stop  offset="0" style="stop-color:#50DBFF"/>
					<stop  offset="0.5244" style="stop-color:#2069FF"/>
					<stop  offset="0.7622" style="stop-color:#915DC0"/>
					<stop  offset="1" style="stop-color:#FF5183"/>
				</linearGradient>
				<path fill="url(#SVGID_16_)" d="M196.49,120.54l2.95,8.22l-2.27,0.81l-1.93-5.39c-0.27,0.41-0.54,0.77-0.82,1.06
					s-0.65,0.62-1.12,0.96l-0.66-1.84c0.68-0.52,1.16-1.03,1.46-1.53s0.48-1.04,0.53-1.64L196.49,120.54z"/>
				<linearGradient id="SVGID_17_" gradientUnits="userSpaceOnUse" x1="180.8086" y1="122.6523" x2="215.0898" y2="122.6523">
					<stop  offset="0" style="stop-color:#50DBFF"/>
					<stop  offset="0.5244" style="stop-color:#2069FF"/>
					<stop  offset="0.7622" style="stop-color:#915DC0"/>
					<stop  offset="1" style="stop-color:#FF5183"/>
				</linearGradient>
				<path fill="url(#SVGID_17_)" d="M200.43,123.81c-0.55-1.54-0.66-2.71-0.33-3.52s1.07-1.42,2.2-1.83
					c0.54-0.2,1.01-0.29,1.41-0.28c0.4,0.01,0.75,0.08,1.04,0.22c0.3,0.14,0.55,0.3,0.76,0.49c0.21,0.19,0.41,0.43,0.61,0.72
					c0.37,0.55,0.67,1.15,0.9,1.81c0.53,1.47,0.66,2.63,0.41,3.49c-0.25,0.86-0.99,1.5-2.2,1.94c-0.68,0.24-1.27,0.33-1.77,0.27
					s-0.96-0.26-1.37-0.58c-0.3-0.23-0.6-0.58-0.89-1.06C200.91,124.99,200.65,124.43,200.43,123.81z M202.65,123.02
					c0.37,1.03,0.71,1.7,1.03,2.01c0.32,0.31,0.65,0.41,0.99,0.28c0.23-0.08,0.4-0.23,0.51-0.45s0.14-0.52,0.1-0.89
					c-0.04-0.37-0.2-0.93-0.46-1.66c-0.38-1.07-0.73-1.76-1.05-2.07c-0.31-0.3-0.65-0.39-1.02-0.26c-0.37,0.13-0.57,0.42-0.6,0.85
					C202.12,121.27,202.29,122,202.65,123.02z"/>
				<linearGradient id="SVGID_18_" gradientUnits="userSpaceOnUse" x1="180.8086" y1="119.9502" x2="215.0898" y2="119.9502">
					<stop  offset="0" style="stop-color:#50DBFF"/>
					<stop  offset="0.5244" style="stop-color:#2069FF"/>
					<stop  offset="0.7622" style="stop-color:#915DC0"/>
					<stop  offset="1" style="stop-color:#FF5183"/>
				</linearGradient>
				<path fill="url(#SVGID_18_)" d="M207.96,121.11c-0.55-1.54-0.66-2.71-0.33-3.52c0.33-0.81,1.07-1.42,2.2-1.83
					c0.54-0.19,1.02-0.29,1.41-0.28c0.4,0.01,0.75,0.08,1.04,0.22c0.3,0.14,0.55,0.3,0.77,0.49c0.21,0.19,0.41,0.43,0.6,0.72
					c0.37,0.55,0.67,1.15,0.9,1.8c0.53,1.47,0.66,2.63,0.41,3.49s-0.98,1.5-2.2,1.94c-0.68,0.24-1.27,0.33-1.77,0.27
					c-0.5-0.07-0.96-0.26-1.37-0.58c-0.3-0.23-0.6-0.58-0.89-1.06S208.18,121.73,207.96,121.11z M210.19,120.31
					c0.37,1.03,0.71,1.7,1.03,2.01c0.32,0.31,0.65,0.41,0.99,0.28c0.23-0.08,0.4-0.23,0.51-0.45c0.11-0.22,0.14-0.52,0.1-0.89
					c-0.04-0.37-0.2-0.93-0.46-1.66c-0.39-1.07-0.74-1.76-1.05-2.07c-0.31-0.3-0.65-0.39-1.02-0.26c-0.37,0.13-0.57,0.42-0.6,0.85
					C209.66,118.57,209.82,119.29,210.19,120.31z"/>
			</g>
		</g>
		
			<text transform="matrix(0.9321 0.3623 -0.3623 0.9321 179.4453 160.7188)" fill="#FFFFFF" font-family="'Arial-Black'" font-size="12">₹ 200</text>
	</g>
	<g>
		<circle fill="#FFD93B" cx="116.66" cy="74.2" r="11.41"/>
		<path fill="#F4C534" d="M127.17,69.76c2.45,5.81-0.26,12.5-6.07,14.96c-3.3,1.4-6.9,1.12-9.84-0.45c2.42,0.7,5.08,0.6,7.58-0.46
			c5.8-2.46,8.52-9.15,6.07-14.96c-1.06-2.5-2.9-4.43-5.12-5.61C122.99,64.15,125.77,66.45,127.17,69.76z"/>
		<circle fill="#3E4347" cx="119.13" cy="80.07" r="2"/>
		<path fill="#FFFFFF" d="M122.47,71.46c0.55,1.31-0.06,2.83-1.38,3.38c-1.31,0.55-2.83-0.06-3.39-1.37
			c-0.56-1.32,0.06-2.84,1.37-3.39C120.39,69.53,121.91,70.15,122.47,71.46z"/>
		<circle fill="#3E4347" cx="120.08" cy="72.47" r="1.2"/>
		<path fill="#5A5F63" d="M120.63,72.11c-0.07,0.11-0.25,0.12-0.39,0.03c-0.14-0.09-0.2-0.25-0.13-0.36s0.25-0.12,0.39-0.03
			C120.64,71.84,120.71,72,120.63,72.11z"/>
		<path fill="#E9B02C" d="M121.79,68.19c0.24,0.35,0.38,0.74,0.43,1.13c-1.02-1.1-2.7-1.34-3.99-0.5l-0.02,0.01
			c-0.46,0.3-1.01-0.24-0.69-0.69c0.26-0.36,0.62-0.67,1.06-0.87C119.71,66.76,121.09,67.16,121.79,68.19z"/>
		<path fill="#FFFFFF" d="M110.64,76.46c0.55,1.31,2.08,1.92,3.39,1.37c1.31-0.55,1.93-2.07,1.38-3.38
			c-0.56-1.32-2.08-1.93-3.39-1.38C110.7,73.62,110.08,75.15,110.64,76.46z"/>
		<circle fill="#3E4347" cx="113.02" cy="75.45" r="1.2"/>
		<path fill="#5A5F63" d="M112.38,75.6c0.13,0.02,0.26-0.09,0.29-0.26c0.04-0.17-0.04-0.32-0.17-0.35s-0.26,0.09-0.3,0.26
			C112.18,75.42,112.26,75.58,112.38,75.6z"/>
		<path fill="#E9B02C" d="M108.76,73.69c0.09,0.42,0.26,0.79,0.51,1.1c-0.08-1.5,0.92-2.87,2.43-3.21l0.02,0
			c0.54-0.12,0.53-0.89-0.02-0.97c-0.44-0.07-0.9-0.02-1.36,0.16C109.19,71.21,108.51,72.48,108.76,73.69z"/>
	</g>
	<g>
		<circle fill="#FFD93B" cx="77.86" cy="118.96" r="11.31"/>
		<path fill="#F4C534" d="M81.98,108.43c5.82,2.27,8.69,8.83,6.42,14.65c-1.29,3.31-3.98,5.67-7.13,6.67
			c2.17-1.24,3.94-3.2,4.92-5.7c2.27-5.82-0.6-12.38-6.42-14.65c-2.5-0.98-5.15-1.01-7.53-0.25
			C75.12,107.51,78.67,107.13,81.98,108.43z"/>
		<path fill="#FFD93B" d="M89.27,118.22c1.03,0.68,1.43,2.15,0.57,3.25c-0.85,1.1-1.34,2.38-1.48,3.79
			c-0.12,1.31-1.33,2.19-2.63,1.98c-4.63-0.78-8.78-4.69-7.44-8.1C79.66,115.65,85.39,115.7,89.27,118.22z"/>
		<path fill="#3E4347" d="M88.73,119.05c0.61,0.4,0.78,1.23,0.33,1.8c-0.98,1.28-1.54,2.71-1.68,4.3c-0.06,0.72-0.75,1.22-1.47,1.1
			c-4.13-0.7-7.72-4.1-6.68-6.76C80.28,116.81,85.22,116.78,88.73,119.05z"/>
		<path fill="#E24B4B" d="M88.56,120.12c-0.7-0.63-1.68-0.95-2.72-0.69c-0.71,0.17-1.21,0.81-1.21,1.55c0,0.49-0.13,0.99-0.35,1.43
			c-0.83,1.71,0.62,2.94,2.22,2.97C86.66,123.45,87.37,121.7,88.56,120.12z"/>
		<g>
			<path fill="#FFFFFF" d="M86.44,122.31c-0.61,1.57-0.71,3.09-0.33,3.96c0.64,0,1.21-0.46,1.27-1.11c0.14-1.6,0.7-3.03,1.68-4.3
				c0.4-0.52,0.29-1.25-0.18-1.68C88.02,119.56,87.05,120.74,86.44,122.31z"/>
			<path fill="#FFFFFF" d="M75.53,123.9c-0.92,1.79-2.69,2.42-4.38,1.22c-1.68-1.21-2.45-3.71-1.71-5.6
				c0.73-1.88,2.49-2.05,4.47-1.43C76.33,118.86,76.6,121.82,75.53,123.9z"/>
		</g>
		<path fill="#3E4347" d="M73.39,119.4c0.93,0.36,1.4,1.42,1.04,2.35c-0.37,0.94-1.43,1.4-2.36,1.03c-0.93-0.36-1.4-1.42-1.03-2.36
			C71.4,119.49,72.46,119.03,73.39,119.4z"/>
		<g>
			
				<ellipse transform="matrix(0.4014 0.9159 -0.9159 0.4014 153.4395 5.7005)" fill="#FFFFFF" cx="72.36" cy="120.24" rx="0.33" ry="0.54"/>
			<path fill="#FFFFFF" d="M79.41,114.14c0.55-1.97-0.29-3.82-2.28-4.34c-1.99-0.51-4.2,0.59-4.94,2.48
				c-0.73,1.88,0.39,3.4,2.21,4.56C76.62,118.25,78.78,116.43,79.41,114.14z"/>
		</g>
		<path fill="#3E4347" d="M76.23,112.14c0.93,0.36,1.4,1.42,1.04,2.35c-0.37,0.94-1.43,1.39-2.36,1.03
			c-0.93-0.37-1.4-1.42-1.03-2.36C74.24,112.24,75.3,111.78,76.23,112.14z"/>
		
			<ellipse transform="matrix(0.3995 0.9167 -0.9167 0.3995 148.736 -1.0813)" fill="#FFFFFF" cx="75.19" cy="112.99" rx="0.33" ry="0.54"/>
	</g>
	<g>
		<circle fill="#FFD93B" cx="118.35" cy="213.2" r="11.6"/>
		<path fill="#F4C534" d="M108.08,207.8c2.98-5.67,9.99-7.85,15.66-4.87c3.23,1.7,5.33,4.7,5.98,8.02
			c-1.01-2.35-2.81-4.38-5.25-5.67c-5.67-2.98-12.68-0.8-15.66,4.87c-1.28,2.44-1.61,5.13-1.11,7.64
			C106.36,214.69,106.38,211.03,108.08,207.8z"/>
		<g>
			<path fill="#3E4347" d="M115.62,207.24c0.16-0.31,0.54-0.43,0.85-0.26l8.07,4.24c0.31,0.16,0.43,0.54,0.27,0.85
				s-0.54,0.43-0.85,0.26l-8.07-4.24C115.57,207.92,115.45,207.54,115.62,207.24z"/>
			<circle fill="#3E4347" cx="120.58" cy="216.88" r="1.73"/>
		</g>
		
			<ellipse transform="matrix(0.9877 -0.1563 0.1563 0.9877 -32.4729 21.3644)" fill="#5A5F63" cx="119.61" cy="217.16" rx="0.29" ry="0.45"/>
		<circle fill="#3E4347" cx="114.05" cy="213.44" r="1.73"/>
		
			<ellipse transform="matrix(0.988 -0.1547 0.1547 0.988 -31.6983 20.0629)" fill="#5A5F63" cx="113.08" cy="213.73" rx="0.29" ry="0.45"/>
	</g>
	<g>
		<circle fill="#FFD93B" cx="173.78" cy="213.67" r="11.58"/>
		<path fill="#F4C534" d="M163.43,218.87c-2.88-5.72-0.57-12.68,5.15-15.55c3.25-1.64,6.91-1.59,9.99-0.2
			c-2.5-0.54-5.19-0.26-7.65,0.97c-5.72,2.87-8.03,9.83-5.15,15.55c1.24,2.46,3.23,4.29,5.56,5.35
			C168.02,224.27,165.06,222.12,163.43,218.87z"/>
		<path fill="#FFFFFF" d="M176.7,215.81c-1.7-2.12-1.2-5.2,0.57-6.05c1.75-0.87,3.67,0,4.6,1.28c0.9,1.31,0.9,3.26-0.09,4.95
			C180.81,217.65,178.4,217.93,176.7,215.81z"/>
		<path fill="#3E4347" d="M180.16,214.76c-0.56,0.79-1.85,0.69-2.76-0.47c-0.91-1.15-0.87-2.73-0.07-3.29
			c0.8-0.57,1.89-0.11,2.57,0.81C180.57,212.74,180.73,213.96,180.16,214.76z"/>
		<path fill="#65B1EF" d="M176.7,215.81c0.95,1.19,2.66,0.59,3.85-0.93c1.2-1.54,1.83-3.1,1.32-3.84c0.9,1.31,0.9,3.26-0.09,4.95
			C180.81,217.65,178.4,217.93,176.7,215.81z"/>
		<path fill="#5A5F63" d="M177.04,216.13c-0.01-0.01,0.17,0.08,0.38,0.09c0.23,0.02,0.52-0.03,0.83-0.17
			c0.62-0.27,1.29-0.9,1.9-1.58c0.16-0.18,0.3-0.36,0.44-0.53c0.14-0.18,0.28-0.35,0.4-0.53c0.26-0.34,0.47-0.69,0.64-0.99
			c0.16-0.3,0.27-0.57,0.32-0.77c0.04-0.2,0.04-0.33,0.04-0.33c-0.01,0,0.08,0.1,0.13,0.33c0.03,0.11,0.05,0.25,0.05,0.42
			c0,0.17-0.01,0.35-0.05,0.55c-0.07,0.4-0.21,0.86-0.4,1.32c-0.1,0.23-0.21,0.46-0.35,0.68c-0.13,0.23-0.28,0.44-0.43,0.65
			c-0.62,0.83-1.5,1.44-2.38,1.46c-0.21,0.02-0.43-0.02-0.62-0.06c-0.19-0.05-0.37-0.13-0.5-0.21
			C177.15,216.28,177.04,216.13,177.04,216.13z"/>
		<path fill="#FFFFFF" d="M174.31,217.01c-0.69-2.63-3.46-4.07-5.19-3.16c-1.74,0.89-2.19,2.94-1.71,4.45
			c0.51,1.51,2.08,2.67,4.02,2.88C173.33,221.41,175,219.64,174.31,217.01z"/>
		<path fill="#3E4347" d="M171.54,218.96c0.96,0.02,1.65-1.07,1.27-2.49c-0.38-1.42-1.67-2.33-2.6-2.02
			c-0.93,0.3-1.22,1.45-0.88,2.54C169.68,218.08,170.56,218.94,171.54,218.96z"/>
		<path fill="#5A5F63" d="M171.08,217.14c-0.25-0.34-0.66-0.5-0.92-0.36c-0.25,0.14-0.26,0.51-0.02,0.84
			c0.24,0.33,0.63,0.49,0.89,0.37C171.3,217.85,171.33,217.48,171.08,217.14z"/>
		<path fill="#65B1EF" d="M174.31,217.01c0.39,1.48-1.11,2.49-3.04,2.53c-1.95,0.04-3.58-0.39-3.87-1.23
			c0.52,1.51,2.08,2.67,4.02,2.89C173.33,221.41,175,219.64,174.31,217.01z"/>
		<path fill="#5A5F63" d="M174.37,217.47c0-0.01-0.04,0.18-0.16,0.37c-0.12,0.2-0.34,0.4-0.63,0.56c-0.59,0.34-1.49,0.5-2.4,0.58
			c-0.23,0.02-0.47,0.03-0.69,0.04c-0.23,0.01-0.45,0.01-0.66,0.01c-0.43,0-0.83-0.04-1.17-0.08c-0.34-0.05-0.62-0.12-0.81-0.21
			c-0.19-0.09-0.29-0.16-0.29-0.17c0.01,0,0.04,0.12,0.19,0.31c0.08,0.09,0.18,0.19,0.31,0.29c0.13,0.1,0.29,0.2,0.47,0.29
			c0.36,0.19,0.81,0.34,1.3,0.46c0.24,0.05,0.5,0.1,0.75,0.13c0.27,0.03,0.52,0.04,0.78,0.04c1.03,0,2.05-0.34,2.6-1.04
			c0.14-0.16,0.24-0.35,0.32-0.53c0.08-0.18,0.12-0.37,0.14-0.53C174.42,217.66,174.36,217.48,174.37,217.47z"/>
		<g>
			<path fill="#3E4347" d="M169,222.45c1.12,0.18,2.25,0.22,3.34,0.07c0.4-0.07,0.79-0.15,1.14-0.28c0.47-0.15,1.35-0.62,1.98-0.71
				c-0.31,1.2-1.8,1.61-3.05,1.73C171.13,223.36,169.69,222.92,169,222.45z"/>
			<path fill="#3E4347" d="M184.2,215.63c-0.16,0.84-0.89,2.16-1.84,2.99c-0.96,0.78-2.28,1.57-3.38,0.92c0,0,0.11-0.08,0.28-0.18
				c0.96-0.54,1.21-0.35,2.63-1.33C182.8,217.34,183.64,216.4,184.2,215.63z"/>
			<path fill="#3E4347" d="M166.55,208.73c0.63-0.54,2.96,0.3,4.86-0.82c2.03-0.83,2.76-3.22,3.56-3.41
				c0.97-0.38,1.92,4.18-2.13,6.26C168.73,212.76,165.67,209.27,166.55,208.73z"/>
		</g>
		<path fill="#5A5F63" d="M178.8,213.55c-0.25-0.34-0.67-0.5-0.92-0.36s-0.26,0.51-0.02,0.83c0.24,0.33,0.63,0.49,0.89,0.37
			C179.01,214.27,179.04,213.89,178.8,213.55z"/>
		<circle fill="#FFD93B" cx="173.78" cy="213.67" r="11.58"/>
		<g>
			<path fill="#F4C534" d="M163.43,218.87c-2.88-5.72-0.57-12.68,5.15-15.55c3.25-1.64,6.91-1.59,9.99-0.2
				c-2.5-0.54-5.19-0.26-7.65,0.97c-5.72,2.87-8.03,9.83-5.15,15.55c1.24,2.46,3.23,4.29,5.56,5.35
				C168.02,224.27,165.06,222.12,163.43,218.87z"/>
			<path fill="#F4C534" d="M175.83,215.1c-1.02-2.03-0.57-4.32,1.03-5.12c1.58-0.79,3.7,0.21,4.71,2.23
				c1.02,2.03,0.56,4.32-1.02,5.12C178.95,218.13,176.84,217.12,175.83,215.1z"/>
		</g>
		<path fill="#FFFFFF" d="M176.52,215.04c-0.81-1.61-0.45-3.44,0.82-4.08c1.26-0.63,2.94,0.17,3.75,1.78
			c0.81,1.62,0.45,3.45-0.81,4.08C179.02,217.46,177.34,216.66,176.52,215.04z"/>
		
			<ellipse transform="matrix(-0.2516 -0.9678 0.9678 -0.2516 16.2232 439.4135)" fill="#3E4347" cx="178.01" cy="213.43" rx="1.74" ry="1.38"/>
		<path fill="#5A5F63" d="M177.41,214.17c0.08-0.11,0.29-0.08,0.49,0.05c0.2,0.14,0.3,0.35,0.21,0.45c-0.07,0.11-0.29,0.1-0.49-0.04
			C177.43,214.48,177.33,214.28,177.41,214.17z"/>
		<path fill="#F4C534" d="M174.29,215.87c-1.02-2.03-3.13-3.03-4.71-2.23c-1.58,0.79-2.04,3.09-1.02,5.12
			c1.02,2.02,3.13,3.03,4.71,2.23C174.86,220.18,175.31,217.89,174.29,215.87z"/>
		<path fill="#FFFFFF" d="M173.83,216.39c-0.81-1.61-2.49-2.41-3.76-1.77c-1.26,0.63-1.62,2.46-0.81,4.07
			c0.81,1.62,2.5,2.42,3.76,1.79C174.29,219.84,174.65,218.01,173.83,216.39z"/>
		
			<ellipse transform="matrix(0.7792 -0.6268 0.6268 0.7792 -97.8722 155.4149)" fill="#3E4347" cx="171.66" cy="216.63" rx="1.38" ry="1.74"/>
		<path fill="#5A5F63" d="M172.61,216.58c-0.14,0-0.25,0.19-0.25,0.43s0.1,0.44,0.23,0.44c0.13,0,0.25-0.18,0.26-0.42
			C172.84,216.78,172.74,216.59,172.61,216.58z"/>
		<g>
			<path fill="#3E4347" d="M175.61,223.67c0,0-3.01,0.61-5.47-1.25C170.14,222.42,173.88,226.82,175.61,223.67z"/>
			<path fill="#3E4347" d="M180.42,221.14c0,0,2.44-1.87,2.66-4.94C183.08,216.2,183.93,221.91,180.42,221.14z"/>
			<path fill="#3E4347" d="M166.71,210.78c-2.05-3.88,1.65-3.96,5.74-4.58c2.94-0.44,3.33-2.75,4.42-0.52
				c1.14,2.2-0.95,1.14-3.05,3.23C170.88,211.83,168.6,214.76,166.71,210.78z"/>
		</g>
		<g>
			<path fill="#FFFFFF" d="M167.88,212.37c1.65,1.22,3.58-1.12,5.93-3.46c1.12-1.11,2.22-1.33,2.85-1.62
				c-0.13-0.27-0.38-0.67-0.83-0.67c-0.63,0-5.06,2.84-6.31,4.03C168.71,211.41,168.08,211.86,167.88,212.37z"/>
			<path fill="#FFFFFF" d="M166.15,209.1c0.77,0.21,1.96-0.75,2.77-0.89c0.96-0.17,5.86-1.84,6.23-2.42
				c0.16-0.25,0.14-0.53,0.06-0.76c-0.59,0.37-1.4,0.97-2.77,1.18C169.07,206.71,165.96,206.86,166.15,209.1z"/>
		</g>
	</g>
</g>
</svg>
